<svg width="837" height="105" viewBox="0 0 837 105" fill="none" xmlns="http://www.w3.org/2000/svg"><path d="M253.037 54.898H243.544V87.8911C243.544 93.9327 244.537 98.0058 249.781 98.0058H251.483V99.4089H220.581V98.0058H222.284C227.39 98.0058 228.384 94.2154 228.521 88.4566V12.0729C228.384 6.31406 227.39 2.38756 222.284 2.38756H220.581V1.12061H251.208C287.925 1.12061 283.675 54.898 253.048 54.898H253.037ZM249.496 4.49216H243.544V51.5369H252.054C266.802 51.5369 267.51 4.49216 249.506 4.49216H249.496Z" fill="white"/><path d="M42.4446 13.0044L56.5687 27.6319C56.5687 27.6319 37.941 46.0813 38.5858 53.7144C39.2307 61.3475 56.5687 78.5194 56.5687 78.5194L41.7997 95.0527C41.7997 95.0527 -1.86231 63.2532 0.0617747 54.039C1.98586 44.8143 26.3964 18.7319 42.4446 13.0044Z" fill="#57EEA1"/><path d="M78.4103 2.19861C78.4103 2.19861 150.342 -7.97889 184.373 54.039C184.373 54.039 155.469 113.512 78.4103 103.974C78.4103 103.974 123.362 94.8432 148.418 53.2955C148.418 53.2955 130.435 17.4649 78.4103 2.19861Z" fill="#57EEA1"/><path d="M119.472 53.2854C98.4018 56.6674 95.6108 59.4316 92.1961 80.2997C88.7814 59.4316 85.9904 56.6674 64.9205 53.2854C85.9904 49.9033 88.7814 47.1391 92.1961 26.271C95.6108 47.1391 98.4018 49.9033 119.472 53.2854Z" fill="#57EEA1"/></svg>
